HIERARCHY
ROOT pelvis
{
  OFFSET 0 100 0
  CHANNELS 6 Xposition Yposition Zposition Zrotation Xrotation Yrotation
  JOINT pelvis_right_femur
  {
    OFFSET -10.78128 -3.44521 -0.5502486
    CHANNELS 3 Zrotation Xrotation Yrotation
    JOINT right_femur_tibia
    {
      OFFSET -0.8047443 -44.0398 -0.1307829
      CHANNELS 3 Zrotation Xrotation Yrotation
      JOINT right_tibia_foot
      {
        OFFSET 3.006224 -47.83518 -5
        CHANNELS 3 Zrotation Xrotation Yrotation
        End Site
        {
          OFFSET 0 -5 15
        }
      }
    }
  }
  JOINT pelvis_left_femur
  {
    OFFSET 10.78128 -3.44521 -0.5502486
    CHANNELS 3 Zrotation Xrotation Yrotation
    JOINT left_femur_tibia
    {
      OFFSET 0.8047443 -44.0398 -0.1307829
      CHANNELS 3 Zrotation Xrotation Yrotation
      JOINT left_tibia_foot
      {
        OFFSET -4.370144 -48.10324 -4.275266
        CHANNELS 3 Zrotation Xrotation Yrotation
        End Site
        {
          OFFSET 0 -5 15
        }
      }
    }
  }
  JOINT pelvis_spine1
  {
    OFFSET 0 6.468898 -3.129235
    CHANNELS 3 Zrotation Xrotation Yrotation
    JOINT spine1
    {
      OFFSET 0 23.15396 4.99043
      CHANNELS 3 Zrotation Xrotation Yrotation
      JOINT spine2
      {
        OFFSET 0 20.79997 -5.064912
        CHANNELS 3 Zrotation Xrotation Yrotation
        JOINT neck
        {
          OFFSET 0 14.38658 9.616178
          CHANNELS 3 Zrotation Xrotation Yrotation
          End Site
          {
            OFFSET 0 20 0
          }
        }
      }
      JOINT right_manubrium
      {
        OFFSET -5.722621 16.35077 3.967754
        CHANNELS 3 Zrotation Xrotation Yrotation
        JOINT right_clavicle
        {
          OFFSET -13.16364 1.694482 -4.693211
          CHANNELS 3 Zrotation Xrotation Yrotation
          JOINT right_humerus
          {
            OFFSET -28.5034 -0.3100689 -2.792744
            CHANNELS 3 Zrotation Xrotation Yrotation
            JOINT right_radius
            {
              OFFSET -25.15693 0.02248979 -1.271978
              CHANNELS 3 Zrotation Xrotation Yrotation
              End Site
              {
                OFFSET -15 0 0
              }
            }
          }
        }
      }
      JOINT left_manubrium
      {
        OFFSET 5.722621 16.35077 3.967754
        CHANNELS 3 Zrotation Xrotation Yrotation
        JOINT left_clavicle
        {
          OFFSET 13.16364 1.694482 -4.693211
          CHANNELS 3 Zrotation Xrotation Yrotation
          JOINT left_humerus
          {
            OFFSET 29.39168 -1.063119 -2.237045
            CHANNELS 3 Zrotation Xrotation Yrotation
            JOINT left_radius
            {
              OFFSET 24.59957 -0.9528479 0.9047498
              CHANNELS 3 Zrotation Xrotation Yrotation
              End Site
              {
                OFFSET 15 -0 -0
              }
            }
          }
        }
      }
    }
  }
}
MOTION
Frames: 7
Frame Time: 0.0416666666667
0 103.5113 0 0.7172646 -0.9198259 0.7202611 1.861795 -22.11873 4.720981 -0 33.62712 -0 -2.851338 -7.955875 -4.120142 -6.286168 11.76046 -17.10907 0 -1.294732 0 2.506732 -21.52979 20.05197 -3.816232 -1.024321 3.063375 2.21357 8.051855 -7.560998 1.240119 21.80079 7.246391 3.037716 -22.43711 8.897742 4.940188 -17.50079 10.60403 85.46658 32.88435 -17.79321 -0 0 14.35554 -12.68035 9.157263 8.015212 6.021804 -19.07927 -2.502769 -89.2628 28.03286 16.15318 0 0 -19.03547 2.527895 12.25337 10.77015
0.4874675 102.6532 3.605584 0.7296435 -0.8329199 1.425368 1.885706 -22.18811 4.825457 -0 33.60978 -0 -2.779689 -8.160176 -4.136595 -6.292836 11.74026 -17.18319 0 -1.310843 0 2.472878 -21.56213 20.07378 -3.83889 -1.006531 3.075541 2.236041 7.996838 -7.567261 1.235782 21.78578 7.261468 3.050979 -22.4496 8.905066 5.035181 -17.45865 10.60001 85.34947 33.07332 -17.76562 -0 0 14.40769 -12.55658 9.151913 7.969407 6.019474 -19.01789 -2.448964 -89.29638 28.15817 16.1645 0 0 -19.03718 2.424652 12.19982 10.89915
0.8618964 101.6217 7.07191 0.3216318 -0.08448642 1.957044 2.912947 -25.49583 4.670826 -0 27.0912 -0 -3.96647 -9.083844 -3.946419 -5.791811 13.46559 -17.22673 0 -0.2490977 0 3.11143 -21.77969 19.79887 -3.454824 -1.247407 2.908439 2.695275 8.229075 -8.123228 1.137969 21.53558 7.249618 3.048306 -23.217 8.925444 4.802052 -17.63063 10.77993 86.38634 33.23274 -19.51682 -0 0 13.48928 -11.72699 9.41439 7.364869 6.344728 -20.19041 -2.562117 -88.80272 27.44098 15.47027 0 0 -21.22017 3.894885 13.05794 9.089581
1.156274 100.4226 10.45945 0.03736822 0.3062644 2.39095 3.571228 -27.61368 4.443261 -0 22.70506 -0 -4.876002 -9.425956 -3.793723 -5.442665 14.6376 -17.16241 -0 0.4381958 -0 3.605934 -21.88318 19.59368 -3.163431 -1.43935 2.781921 2.974201 8.465012 -8.489565 1.077375 21.38711 7.219066 3.026395 -23.72149 8.928769 4.504125 -17.82146 10.90747 87.24613 33.04791 -20.71889 -0 0 12.8105 -11.34674 9.597145 7.026674 6.566961 -21.0711 -2.712006 -88.44592 26.76684 15.01656 0 0 -22.68129 5.065946 13.69027 7.656069
1.367764 99.14549 13.84627 -0.1912135 0.5356208 2.726996 4.168468 -29.27785 4.335471 -0 19.053 -0 -5.543894 -9.629865 -3.777552 -5.146839 15.59489 -16.95347 -0 2.205713 -0 3.698271 -21.78119 19.22791 -2.890959 -1.541956 2.687408 3.197392 8.652979 -8.782252 1.0461 21.28674 7.171034 3.008512 -24.02477 8.895742 4.285847 -17.8168 11.00689 87.99461 32.85269 -21.79237 -0 0 12.0741 -11.06926 9.773423 6.707546 6.713834 -21.77402 -2.843371 -88.03807 26.2295 14.41995 0 0 -23.95725 5.922824 14.041 6.604949
1.508315 97.8571 17.32613 -0.3430625 0.4972532 2.982715 4.60338 -30.2954 4.179367 -0 16.45483 -0 -6.031538 -9.405497 -3.848583 -4.927473 16.3107 -16.54088 -0 4.720887 -0 3.487864 -21.47382 18.73486 -2.633658 -1.581965 2.611379 3.318751 8.855991 -8.97326 1.049013 21.25917 7.093726 2.977888 -24.10701 8.825791 4.02893 -17.70143 11.07689 88.71385 32.40918 -22.66749 -0 0 11.29103 -11.07878 9.935192 6.501956 6.78229 -22.33533 -3.021055 -87.58859 25.69238 13.74911 0 0 -24.93894 6.558416 14.18988 5.818229
1.587597 96.64207 20.99493 -0.4164253 0.2266984 3.170892 4.914475 -30.7025 4.048744 -0 14.83635 -0 -6.280395 -8.87556 -4.039339 -4.782278 16.77074 -15.92853 -0 8.2704 -0 2.887491 -20.92885 18.08676 -2.394735 -1.53589 2.56356 3.3529 9.039991 -9.066397 1.087264 21.29786 6.99053 2.943257 -23.95459 8.715 3.798935 -17.41246 11.1166 89.3463 31.83827 -23.3589 -0 0 10.45028 -11.29988 10.08819 6.368711 6.7649 -22.7169 -3.214497 -87.08724 25.23367 12.95459 0 0 -25.65732 6.876627 14.08625 5.408598
